<?xml version="1.0" standalone="no"?><!DOCTYPE svg PUBLIC "-//W3C//DTD SVG 1.1//EN" "http://www.w3.org/Graphics/SVG/1.1/DTD/svg11.dtd"><svg t="1678516819085" class="icon" viewBox="0 0 1024 1024" version="1.1" xmlns="http://www.w3.org/2000/svg" p-id="1487" xmlns:xlink="http://www.w3.org/1999/xlink" width="80" height="80"><path d="M200.817873 75.680297l86.094786-50.124406C355.767204-14.458497 451.120638-8.818171 556.264827 51.94836l-86.094786 50.017984c-105.25061-60.660109-200.604044-66.300435-269.352168-26.286047z" fill="#FF7517" p-id="1488"></path><path d="M200.817873 75.680297l86.094786-50.124406a186.237177 186.237177 0 0 1 30.649318-14.154025l-86.094786 50.017984a182.725276 182.725276 0 0 0-30.649318 14.260447M231.467191 61.41985l86.094786-50.017984a210.926905 210.926905 0 0 1 26.49889-7.343066l-86.201207 50.124406a196.879301 196.879301 0 0 0-26.392469 7.236644" fill="#FF7517" p-id="1489"></path><path d="M257.85966 54.183206l86.201207-50.124406a206.989319 206.989319 0 0 1 21.816355-3.086216l-86.201207 50.017984c-7.449487 0.744949-14.686132 1.809161-21.284249 3.192638" fill="#FF7517" p-id="1490"></path><path d="M279.676015 50.990568l86.201207-50.017984C372.262497 0.014793 378.860614 0.014793 385.458731 0.014793l-86.094786 50.124405c-6.704538 0-13.196234 0-19.68793 0.85137" fill="#FF7517" p-id="1491"></path><path d="M299.363945 50.139198L385.458731 0.014793c5.853168 0 11.812758 0 17.772348 0.638527l-86.094787 50.017985c-6.066011 0-11.919179-0.638527-17.772347 0" fill="#FF7517" p-id="1492"></path><path d="M317.136292 50.671305L403.231079 0.65332c5.533905 0 11.174231 0.957791 16.920977 1.70274l-86.201207 50.017984c-5.640326-0.744949-11.280652-1.277055-16.814557-1.702739" fill="#FF7517" p-id="1493"></path><path d="M333.950849 52.374044L420.258478 2.35606c5.427483 0.744949 10.642124 1.596319 16.495292 2.660531l-86.201207 50.124406c-5.640326-1.064212-11.174231-2.022004-16.601714-2.766953" fill="#FF7517" p-id="1494"></path><path d="M350.552563 55.140997L436.647349 5.016591 452.184851 8.528492l-86.201208 50.017985c-5.214641-1.277055-10.642124-2.447689-15.43108-3.40548" fill="#FF7517" p-id="1495"></path><path d="M365.983643 58.546477L452.184851 8.528492c5.214641 1.277055 10.642124 2.660531 15.643923 4.25685l-86.201208 50.124406a351.190104 351.190104 0 0 0-15.643923-4.363271M381.627566 62.909748l86.201208-50.124406c5.001798 1.596319 10.642124 3.192637 15.111816 5.001798l-86.094786 50.017985c-5.10822-1.70274-10.642124-3.40548-15.218238-4.895377" fill="#FF7517" p-id="1496"></path><path d="M396.845804 67.805125l86.094786-50.017985q7.66233 2.766952 15.324659 5.746747l-86.201207 50.017985-15.218238-5.746747M412.064042 73.551872l86.201207-50.017985c5.001798 2.022004 10.642124 4.150429 15.111817 6.385275l-86.094786 50.124406c-5.10822-2.341267-10.110018-4.469692-15.218238-6.491696" fill="#FF7517" p-id="1497"></path><path d="M427.28228 80.043568l86.094786-50.124406c5.10822 2.341267 10.642124 4.682535 15.324659 7.236645L442.606939 87.280212c-5.214641-2.55411-10.642124-5.001798-15.324659-7.236644" fill="#FF7517" p-id="1498"></path><path d="M442.606939 87.280212l86.094786-50.124405c5.214641 2.55411 10.642124 5.214641 15.537502 8.088014L458.038019 95.793912c-5.10822-2.766952-10.642124-5.427483-15.43108-7.981593M458.038019 95.793912l86.201208-50.017985c4.044007 2.128425 7.981593 4.363271 12.0256 6.704539l-86.094786 50.017984L458.038019 95.793912" fill="#FF7517" p-id="1499"></path><path d="M823.169306 948.334496l-86.094786 50.124405C805.077695 958.870199 847.220508 874.903837 847.539771 755.605623c0.638527-240.192747-168.358408-532.851168-377.36973-653.639279l86.094786-50.017984c209.117744 120.68169 378.114679 413.340111 377.36973 653.532857-0.319264 119.404635-42.462076 203.370997-110.465251 242.853279z" fill="#FF7517" p-id="1500"></path><path d="M470.170041 101.966344l86.094786-50.017984 3.724744 2.128424L473.469099 104.20119l-3.724743-2.234846" fill="#FF7517" p-id="1501"></path><path d="M473.469099 104.20119l86.094787-50.124406c5.427483 3.192637 10.642124 6.491696 16.069607 9.790755l-86.201207 50.124406c-5.321062-3.40548-10.642124-6.704538-15.963187-9.790755M489.857971 113.991945L576.059178 63.867539l16.069608 10.642124-86.201207 50.124406c-5.321062-3.724744-10.642124-7.236645-16.069608-10.642124" fill="#FF7517" p-id="1502"></path><path d="M505.927579 124.634069L592.128786 74.509663c5.533905 3.831165 10.642124 7.768751 16.388872 11.706337l-86.094786 50.124406c-5.427483-4.044007-10.642124-7.981593-16.495293-11.706337M522.422872 136.340406l86.094786-50.124406c5.640326 4.150429 11.174231 8.407278 16.708135 12.664128L539.024586 149.004534c-5.533905-4.363271-10.642124-8.620121-16.601714-12.664128" fill="#FF7517" p-id="1503"></path><path d="M539.024586 149.004534l86.201207-50.124406c5.640326 4.469692 11.280652 9.045806 16.814557 13.834762l-86.201208 50.017984c-5.533905-4.682535-11.174231-9.258648-16.814556-13.72834M555.839142 162.732874l86.201208-50.017984c5.640326 4.788956 11.280652 9.684333 16.814556 14.686131l-86.201207 50.017985c-5.533905-5.001798-10.642124-9.897176-16.814557-14.686132M572.653699 177.419006l86.201207-50.017985c5.640326 5.001798 10.642124 10.642124 16.601714 15.431081l-86.094786 50.017984-16.708135-15.43108M589.361834 192.850086l86.307629-50.017984c5.427483 5.10822 10.642124 10.642124 15.963186 15.750344l-86.094786 50.124406c-5.321062-5.427483-10.642124-10.642124-15.963187-15.856766" fill="#FF7517" p-id="1504"></path><path d="M605.32502 208.706852l86.094787-50.124406c5.321062 5.321062 10.642124 10.642124 15.537501 16.28245l-86.201207 50.017985c-5.10822-5.427483-10.642124-10.642124-15.431081-16.176029" fill="#FF7517" p-id="1505"></path><path d="M620.756101 224.882881l86.201207-50.017985q7.449487 7.981593 14.686132 16.28245l-86.094786 50.124406c-4.895377-5.533905-9.790754-10.642124-14.792553-16.388871" fill="#FF7517" p-id="1506"></path><path d="M635.548654 241.271752L721.64344 191.573031c5.001798 5.640326 9.897176 11.387073 14.686132 17.133821l-86.201208 50.124405c-4.788956-5.853168-9.684333-11.493494-14.57971-17.13382" fill="#FF7517" p-id="1507"></path><path d="M650.128364 258.405572l86.201208-50.124405c4.895377 5.95959 9.790754 11.919179 14.57971 18.091611L665.027338 276.710026c-4.788956-6.066011-9.577912-12.132022-14.57971-17.98519M665.027338 276.710026l86.201208-50.017984c5.746747 7.236645 11.280652 14.57971 16.814556 22.029197l-86.094786 50.124406C675.669463 291.076894 670.454822 283.627407 665.027338 276.710026" fill="#FF7517" p-id="1508"></path><path d="M681.629052 298.526381l86.094786-50.124406q12.451286 16.708135 23.94478 34.16122l-86.094786 50.124406q-11.706337-17.453084-23.94478-34.16122" fill="#FF7517" p-id="1509"></path><path d="M705.573832 332.687601l86.094786-50.124406q14.686132 22.029197 28.095209 44.803343l-86.094787 50.017985c-8.939384-15.111817-18.304454-30.117212-28.095208-44.696922" fill="#FF7517" p-id="1510"></path><path d="M733.66904 377.384523l86.094787-50.017985c6.491696 10.642124 12.664128 22.029197 18.730139 33.203428l-86.201208 50.124406c-5.95959-11.174231-12.238443-22.348461-18.623718-33.309849" fill="#FF7517" p-id="1511"></path><path d="M752.292758 410.694372l86.201208-50.124406c4.044007 7.555908 7.875172 15.111817 11.706336 22.774147l-86.201207 50.017984c-3.724744-7.555908-7.66233-15.111817-11.706337-22.667725" fill="#FF7517" p-id="1512"></path><path d="M763.999095 433.362097L850.200302 383.13127c3.299059 6.598117 6.491696 13.302655 9.684334 20.007194l-86.201208 50.017984c-3.086216-6.704538-6.278853-13.302655-9.684333-20.007193M773.683428 453.369291l86.201208-50.017985q4.363271 9.045806 8.300857 18.198033L782.090706 471.673745c-2.766952-6.172432-5.533905-12.238443-8.407278-18.304454" fill="#FF7517" p-id="1513"></path><path d="M782.090706 471.673745l86.094787-50.124406c2.660531 6.066011 5.214641 12.025601 7.76875 18.091612L789.753036 489.552514c-2.447689-5.95959-5.10822-12.025601-7.66233-17.98519" fill="#FF7517" p-id="1514"></path><path d="M789.753036 489.552514l86.201207-50.017985c2.55411 6.066011 5.001798 12.238443 7.343066 18.410875l-86.094786 50.017985c-2.447689-6.172432-4.895377-12.238443-7.449487-18.410875" fill="#FF7517" p-id="1515"></path><path d="M797.202523 508.06981L883.297309 457.626141q3.618322 9.258648 7.023802 18.517296l-86.201207 50.017985c-2.234846-6.172432-4.576113-12.344864-6.917381-18.517297M804.119904 526.587107l86.201207-50.017985c2.341267 6.385275 4.576113 12.87697 6.704539 19.262245l-86.201208 50.124406c-2.128425-6.491696-4.363271-12.87697-6.704538-19.368666M810.824442 545.955773l86.201208-50.124406c2.128425 6.598117 4.25685 13.089813 6.278853 19.581509l-86.201207 50.124406c-1.915582-6.598117-4.044007-13.089813-6.278854-19.581509" fill="#FF7517" p-id="1516"></path><path d="M817.103296 565.537282l86.201207-50.124406c2.022004 6.704538 3.937586 13.302655 5.853168 20.007194L822.956464 585.331633c-1.809161-6.704538-3.724744-13.409077-5.853168-20.007194" fill="#FF7517" p-id="1517"></path><path d="M822.956464 585.331633l86.201207-50.124406c1.809161 6.704538 3.618322 13.409077 5.214641 20.113615l-86.094786 50.017985c-1.70274-6.704538-3.40548-13.302655-5.321062-20.007194M828.277526 605.55167l86.094786-50.017985c1.70274 6.598117 3.192637 13.196234 4.682535 19.794351l-86.201207 50.124406c-1.383476-6.598117-2.979795-13.302655-4.576114-19.900772" fill="#FF7517" p-id="1518"></path><path d="M832.85364 625.452442l86.201207-50.124406c1.383476 6.598117 2.766952 13.196234 3.937586 19.794352l-86.094786 50.017984c-1.277055-6.598117-2.55411-13.089813-4.044007-19.68793M836.897647 645.140372l86.094786-50.017984c1.277055 6.385275 2.341267 12.770549 3.40548 19.049402l-86.201208 50.124406c-0.957791-6.385275-2.128425-12.770549-3.299058-19.155824" fill="#FF7517" p-id="1519"></path><path d="M840.196705 664.296196l86.201208-50.124406c0.957791 6.385275 1.809161 12.770549 2.660531 19.049403l-86.201207 50.017984c-0.744949-6.278853-1.70274-12.664128-2.660532-18.942981" fill="#FF7517" p-id="1520"></path><path d="M842.857237 683.239177l86.201207-50.017984c0.744949 6.172432 1.489897 12.344864 2.022004 18.517296L844.985661 702.395001c-0.638527-6.172432-1.277055-12.344864-2.128424-18.623717" fill="#FF7517" p-id="1521"></path><path d="M844.985661 702.395001L931.080448 651.738489c0.638527 6.172432 1.064212 12.344864 1.489897 18.410876l-86.094786 50.017984c0-6.066011-0.957791-12.238443-1.489898-18.304454M846.475559 720.167349L932.570345 670.468628c0 6.066011 0.638527 12.238443 0.85137 18.304454l-86.094786 50.017985c0-6.066011 0-12.132022-0.85137-18.304454" fill="#FF7517" p-id="1522"></path><path d="M847.326929 738.471803l86.094786-50.017985V706.54543l-85.881944 50.124406V755.605623v-17.13382M847.539771 756.669836l86.094786-50.124406v18.304454l-86.094786 50.124406V756.669836" fill="#FF7517" p-id="1523"></path><path d="M847.114086 774.97429l86.094786-50.124406c0 6.066011-0.638527 12.025601-1.064212 17.878769L845.943453 792.853059c0-5.853168 0.85137-11.812758 1.170633-17.878769" fill="#FF7517" p-id="1524"></path><path d="M845.943453 792.853059l86.201207-50.124406q-0.744949 9.258648-1.915582 18.198032l-86.094787 50.124406c0.744949-5.95959 1.383476-12.025601 1.809162-18.198032M844.134291 811.051091l86.094787-50.124406c-0.744949 6.172432-1.70274 12.238443-2.660531 18.091612l-86.201208 50.124406c1.064212-5.95959 1.915582-11.919179 2.766952-18.091612" fill="#FF7517" p-id="1525"></path><path d="M841.367339 829.142703l86.201208-50.124406c-1.170634 6.385275-2.341267 12.557707-3.724744 18.623718l-86.201207 50.017984c1.383476-6.066011 2.660531-12.238443 3.724743-18.517296" fill="#FF7517" p-id="1526"></path><path d="M837.642596 847.659999l86.201207-50.017984c-1.489897 6.598117-3.192637 12.983392-5.10822 19.262245l-86.094786 50.124405c1.809161-6.278853 3.511901-12.770549 5.001799-19.368666M832.640797 867.028665l86.094786-50.124405c-1.915582 6.917381-4.150429 13.515498-6.598117 19.900772l-86.094786 50.124406c2.341267-6.491696 4.576113-13.089813 6.598117-19.900773" fill="#FF7517" p-id="1527"></path><path d="M826.04268 886.929438l86.094786-50.124406c-2.766952 7.555908-5.746747 14.686132-9.045806 21.284249l-86.201207 50.017985c3.299059-6.81096 6.385275-14.047604 9.152227-21.284249M816.890453 908.426529l86.201207-50.017984A249.451395 249.451395 0 0 1 888.51195 884.268907l-86.201207 50.124406a225.187352 225.187352 0 0 0 14.260446-25.966784" fill="#FF7517" p-id="1528"></path><path d="M802.630006 934.393313L888.51195 884.268907a192.409609 192.409609 0 0 1-65.661907 63.852746l-86.094787 50.124406a193.154557 193.154557 0 0 0 65.555487-63.852746" fill="#FF7517" p-id="1529"></path><path d="M470.170041 101.966344C679.181364 222.754456 848.178299 515.412876 847.539771 755.605623s-170.806096 337.1425-379.92384 216.46081S89.714094 558.726322 90.352622 318.427154 260.626612-18.715346 470.170041 101.966344z" fill="#FFDF5A" p-id="1530"></path><path d="M240.166706 666.839764a436.859206 253.069718 59.84 1 0 437.621197-254.292776 436.859206 253.069718 59.84 1 0-437.621197 254.292776Z" fill="#FFB845" p-id="1531"></path><path d="M672.05114 921.409921c-56.403259 32.671322-134.410031 28.095208-220.504817-21.284249-171.12536-98.865335-309.472977-338.419555-308.621607-535.086013 0-97.694702 34.799747-166.442825 90.458058-198.794884l7.449487-4.256849c-55.65831 31.926373-90.138793 100.99376-90.351636 198.688462-0.638527 196.666458 137.709089 436.327099 308.621607 535.086013 86.201207 49.698721 164.207979 54.274834 220.504817 21.284249z" fill="#FF7517" p-id="1532"></path><path d="M672.05114 921.409921l7.449487-4.363271A157.290598 157.290598 0 0 1 654.385214 928.646566l-7.555908 4.363271a158.461232 158.461232 0 0 0 25.115413-11.599916" fill="#FF7517" p-id="1533"></path><path d="M646.935727 933.009837l7.555908-4.363271a163.250188 163.250188 0 0 1-21.284249 5.959589l-7.449487 4.363271a157.39702 157.39702 0 0 0 21.284249-5.959589M625.332214 938.969426l7.449487-4.363271a164.3144 164.3144 0 0 1-17.878769 2.55411l-7.449487 4.363271a164.3144 164.3144 0 0 0 17.878769-2.55411" fill="#FF7517" p-id="1534"></path><path d="M607.453445 941.523536l7.449487-4.363271a157.929126 157.929126 0 0 1-16.069607 0.744949l-7.449487 4.363271c5.427483 0 10.642124 0 16.069607-0.744949" fill="#FF7517" p-id="1535"></path><path d="M591.383838 942.268485l7.449487-4.363271h-14.47329l-7.555908 4.363271h14.579711M576.804127 941.8428l7.555908-4.363271c-4.576113 0-9.152227-0.85137-13.834761-1.489898l-7.555909 4.363271c4.682535 0.638527 9.258648 1.170634 13.834762 1.489898M562.969365 940.352902l7.555909-4.363271c-4.469692 0-9.045806-1.277055-13.621919-2.234846l-7.449488 4.363271c4.576113 0.957791 9.045806 1.70274 13.515498 2.234846" fill="#FF7517" p-id="1536"></path><path d="M549.453867 938.118056l7.449488-4.363271c-4.150429-0.744949-8.407278-1.70274-12.664128-2.766952l-7.449488 4.363271c4.25685 1.064212 8.5137 2.022004 12.664128 2.766952" fill="#FF7517" p-id="1537"></path><path d="M537.321846 935.351104l7.449487-4.363271-12.770549-3.511901-7.555909 4.363271 12.876971 3.511901M523.912769 931.839203l7.555908-4.363271-12.451285-4.044007-7.449487 4.363271 12.344864 4.044007" fill="#FF7517" p-id="1538"></path><path d="M511.567905 927.795196l7.449487-4.363271q-6.278853-2.234846-12.451286-4.788956l-7.555908 4.363271 12.557707 4.788956" fill="#FF7517" p-id="1539"></path><path d="M499.010198 923.00624l7.555908-4.363271c-4.150429-1.596319-8.300857-3.40548-12.451285-5.214641l-7.449487 4.363271c4.150429 1.809161 8.300857 3.618322 12.344864 5.214641M486.665334 917.791599l7.449487-4.363271c-4.150429-1.915582-8.300857-3.831165-12.557707-5.95959l-7.449487 4.363271c4.150429 2.128425 8.407278 4.044007 12.557707 5.95959" fill="#FF7517" p-id="1540"></path><path d="M474.107627 911.832009l7.449487-4.363271-12.664128-6.491696-7.555908 4.363271c4.25685 2.234846 8.5137 4.469692 12.770549 6.491696" fill="#FF7517" p-id="1541"></path><path d="M461.337078 905.340313l7.555908-4.363271-9.897176-5.533904-2.979795-1.489898-7.555908 4.363271 3.086216 1.809161 9.790755 5.533905M448.460107 897.997247l7.555908-4.363271c-4.469692-2.55411-8.832963-5.214641-13.196234-7.981593l-7.449487 4.363271q6.491696 4.150429 13.089813 7.981593" fill="#FF7517" p-id="1542"></path><path d="M435.370294 890.015654l7.449487-4.363271-13.089813-8.726542-7.555908 4.363271 13.196234 8.726542M422.17406 881.289112l7.555908-4.363271c-4.576113-3.086216-9.045806-6.278853-13.515498-9.577912l-7.449487 4.363271q6.704538 5.001798 13.409077 9.577912" fill="#FF7517" p-id="1543"></path><path d="M408.764983 871.7112l7.449487-4.363271c-4.576113-3.40548-9.045806-6.81096-13.621919-10.642124l-7.449487 4.363271c4.469692 3.618322 9.045806 7.023802 13.621919 10.642124" fill="#FF7517" p-id="1544"></path><path d="M395.143064 861.281918l7.449487-4.363271q-6.81096-5.427483-13.72834-10.642124l-7.555909 4.363271c4.576113 3.831165 9.152227 7.555908 13.834762 11.174231M381.308302 850.107688l7.555909-4.363271c-4.682535-3.937586-9.258648-7.981593-13.834762-12.025601l-7.449487 4.363271 13.72834 12.025601" fill="#FF7517" p-id="1545"></path><path d="M367.579962 838.082087l7.449487-4.363271-13.621919-12.664128-7.449487 4.363271 13.621919 12.664128" fill="#FF7517" p-id="1546"></path><path d="M353.958043 825.417959l7.449487-4.363271-12.983392-12.983392-7.555908 4.363271c4.363271 4.363271 8.620121 8.726542 13.089813 12.983392" fill="#FF7517" p-id="1547"></path><path d="M340.86823 812.434567l7.555908-4.363271c-4.363271-4.363271-8.5137-8.726542-12.770549-13.302655l-7.449487 4.363271c4.150429 4.576113 8.407278 8.939384 12.664128 13.302655" fill="#FF7517" p-id="1548"></path><path d="M328.204102 799.131912l7.449487-4.363271c-4.044007-4.363271-8.088015-8.832963-12.025601-13.302656l-7.449487 4.363271c3.937586 4.469692 7.981593 8.939384 12.025601 13.302656M316.178501 785.829256l7.449487-4.363271c-4.044007-4.576113-7.981593-9.258648-11.919179-14.047604l-7.555908 4.363271c3.937586 4.788956 7.981593 9.471491 12.0256 14.047604M304.152901 771.781652l7.555908-4.363271a558.71153 558.71153 0 0 1-12.025601-14.792553l-7.449487 4.363271c3.937586 5.001798 7.875172 9.897176 11.91918 14.792553" fill="#FF7517" p-id="1549"></path><path d="M292.552985 756.989099l7.449487-4.363271c-4.682535-5.853168-9.258648-11.919179-13.72834-18.091611l-7.555909 4.363271c4.576113 6.172432 9.152227 12.238443 13.834762 18.091611M278.39896 738.897488l7.555908-4.363271c-6.704538-9.045806-13.302655-18.410875-19.68793-27.882366l-7.449487 4.363271c6.385275 9.471491 12.87697 18.83656 19.581509 27.882366" fill="#FF7517" p-id="1550"></path><path d="M258.817451 711.015122l7.449487-4.363271c-7.981593-12.025601-15.643923-24.157622-22.880568-36.608908l-7.555908 4.363271c7.343066 12.344864 15.005395 24.583307 22.986989 36.608908M235.830462 674.406214l7.555908-4.363271c-5.321062-9.045806-10.642124-18.091611-15.324659-27.243838l-7.449487 4.363271c4.895377 9.152227 9.897176 18.198033 15.218238 27.243838" fill="#FF7517" p-id="1551"></path><path d="M220.612224 647.162376l7.449487-4.363271c-3.299059-6.172432-6.491696-12.344864-9.577912-18.623718l-7.555908 4.363271c3.086216 6.278853 6.385275 12.451286 9.684333 18.623718" fill="#FF7517" p-id="1552"></path><path d="M210.927891 628.538658l7.555908-4.363271c-2.766952-5.427483-5.427483-10.642124-7.981593-16.388871l-7.449487 4.363271c2.55411 5.533905 5.214641 10.642124 7.875172 16.388871" fill="#FF7517" p-id="1553"></path><path d="M203.052719 612.149787l7.449487-4.363271c-2.341267-4.895377-4.576113-9.897176-6.810959-14.898974l-7.449488 4.363271c2.234846 5.001798 4.469692 10.003597 6.81096 14.898974" fill="#FF7517" p-id="1554"></path><path d="M196.773866 597.250813l7.449487-4.363271c-2.128425-4.895377-4.25685-9.897176-6.278854-14.792553l-7.555908 4.363271c2.128425 4.895377 4.150429 9.897176 6.385275 14.792553M189.856485 582.45826l7.555908-4.363271q-3.192637-7.449487-6.066011-15.005396l-7.555908 4.363271 6.066011 15.005396" fill="#FF7517" p-id="1555"></path><path d="M183.790474 567.452864l7.555908-4.363271L186.131741 547.871355l-7.449487 4.363271c1.809161 5.10822 3.724744 10.642124 5.640326 15.218238M178.150148 552.234626l7.449487-4.363271c-1.915582-5.214641-3.724744-10.642124-5.427483-15.750344l-7.555909 4.363271c1.809161 5.214641 3.618322 10.642124 5.533905 15.750344M172.616243 536.484282l7.555909-4.363271c-1.809161-5.427483-3.511901-10.642124-5.214641-16.069607l-7.449487 4.363271c1.596319 5.321062 3.299059 10.642124 5.108219 16.069607" fill="#FF7517" p-id="1556"></path><path d="M167.508024 520.414675l7.449487-4.363271L170.168555 500.194638l-7.449487 4.363271c1.489897 5.427483 3.086216 10.642124 4.788956 16.388872" fill="#FF7517" p-id="1557"></path><path d="M162.719068 504.025803l7.449487-3.831165c-1.489897-5.427483-2.873374-10.642124-4.25685-16.388871l-7.555908 4.363271c1.383476 5.427483 2.873374 10.642124 4.363271 16.388871M158.355797 487.636931l7.555908-4.363271q-2.128425-8.194436-3.831165-16.28245l-7.449487 4.363271c1.170634 5.427483 2.447689 10.642124 3.724744 16.28245M154.205368 471.354481l7.449487-4.363271a723.664458 723.664458 0 0 1-3.299058-16.176029l-7.449487 4.363271c1.064212 5.427483 2.128425 10.642124 3.299058 16.176029" fill="#FF7517" p-id="1558"></path><path d="M151.331995 455.178452l7.449487-4.363271c-0.957791-5.214641-1.809161-10.642124-2.660531-15.643923l-7.449488 4.363271c0.744949 5.214641 1.70274 10.642124 2.660532 15.643923M148.671463 439.534529l7.449488-4.363271c-0.85137-5.214641-1.596319-10.642124-2.234847-15.537501l-7.449487 4.363271c0.638527 5.10822 1.383476 10.642124 2.234846 15.537501" fill="#FF7517" p-id="1559"></path><path d="M146.436617 423.997028l7.449487-4.363271c-0.638527-5.10822-1.170634-10.642124-1.702739-15.218238l-7.449488 4.363271c0 5.10822 1.064212 10.642124 1.70274 15.218238M144.733877 408.77879l7.449488-4.363271c0-5.001798-0.85137-10.003597-1.170634-15.005396L143.563244 393.773394c0 5.001798 0.638527 10.003597 1.170633 15.005396" fill="#FF7517" p-id="1560"></path><path d="M143.563244 393.773394l7.449487-4.363271q0-7.66233-0.638528-15.005395l-7.555908 4.363271c0 4.895377 0 9.897176 0.744949 15.005395M142.818295 378.767999l7.555908-4.363271V359.505754l-7.555908 4.363271V378.767999M142.605453 363.869025l7.555908-4.363271v-15.005395l-7.449487 4.363271v15.005395" fill="#FF7517" p-id="1561"></path><path d="M143.563244 348.86363l7.449487-4.363271c0-4.895377 0-9.790754 0.957791-14.579711l-8.407278 4.363271c0 4.788956-0.638527 9.684333-0.85137 14.579711" fill="#FF7517" p-id="1562"></path><path d="M143.563244 334.283919l7.875172-4.363271c0-5.10822 0.85137-10.110018 1.489897-14.898974l-7.449487 4.363271c-0.638527 4.788956-1.170634 9.790754-1.596318 14.898974M145.478826 319.278524l7.449487-4.363271c0.638527-5.10822 1.383476-10.003597 2.234846-14.898974l-7.555908 4.363271c-0.85137 4.895377-1.489897 9.790754-2.128425 14.898974" fill="#FF7517" p-id="1563"></path><path d="M147.607251 304.485971l7.555908-4.363271c0.85137-5.10822 1.915582-10.642124 2.979795-15.111817l-7.449487 4.363271c-1.170634 4.895377-2.128425 10.003597-3.086216 15.111817" fill="#FF7517" p-id="1564"></path><path d="M150.693467 289.374154l7.449487-4.363271c1.277055-5.427483 2.660531-10.642124 4.150429-15.856765l-7.449487 4.363271c-1.489897 5.10822-2.873374 10.642124-4.150429 15.856765M154.843896 273.517389l7.449487-4.363271c1.70274-5.533905 3.511901-10.642124 5.427483-16.28245l-7.449487 4.363271c-2.022004 5.214641-3.831165 10.642124-5.427483 16.28245" fill="#FF7517" p-id="1565"></path><path d="M160.271379 257.234939l7.449487-4.363271c2.234846-6.066011 4.788956-12.025601 7.449487-17.665927l-7.555908 4.363271c-2.766952 5.214641-5.10822 11.599916-7.343066 17.665927" fill="#FF7517" p-id="1566"></path><path d="M167.614445 239.569012L175.489617 235.205741a192.941715 192.941715 0 0 1 11.706337-21.284248l-7.555909 4.363271a212.842488 212.842488 0 0 0-11.706336 21.284248M179.320782 218.391185l7.555908-4.363271a157.39702 157.39702 0 0 1 53.210622-52.359252l-7.449487 4.25685a158.035547 158.035547 0 0 0-53.742728 52.465673" fill="#FF7517" p-id="1567"></path><path d="M323.308724 548.190619l27.243839-15.750344 69.28023 40.014388-27.137418 15.856765-69.386651-40.120809z" fill="#FF9F48" p-id="1568"></path><path d="M473.469099 701.969316l27.137418-15.750344-0.106422 60.553688-27.137417 15.856765 0.106421-60.660109z" fill="#FF7517" p-id="1569"></path><path d="M323.734409 428.147456l27.137418-15.856765 27.775944 16.069608-27.243838 15.750344-27.669524-15.963187z" fill="#FF9F48" p-id="1570"></path><path d="M473.788363 608.425043l27.137417-15.750344-0.106421 26.605311-27.137417 15.750344 0.106421-26.605311zM485.388279 588.524271l27.137417-15.750345-11.599916 19.900773-27.137417 15.750344 11.599916-19.900772z" fill="#FF7517" p-id="1571"></path><path d="M473.681942 635.030354l27.137417-15.750344 69.386651 40.014388-27.137417 15.750344-69.386651-40.014388z" fill="#FF9F48" p-id="1572"></path><path d="M543.068593 675.044742l27.137417-15.750344-0.212842 66.938962-27.137418 15.856765 0.212843-67.045383z" fill="#FF7517" p-id="1573"></path><path d="M294.042882 280.009085l27.137418-15.750344 88.329632 50.975776-27.137417 15.750344-88.329633-50.975776z" fill="#FF9F48" p-id="1574"></path><path d="M382.372515 330.984861l27.137417-15.750344 51.401461 166.01714-27.137417 15.750344-51.401461-166.01714zM543.387857 554.895158l27.137417-15.750345-0.212843 67.045384-27.137417 15.750344 0.212843-67.045383z" fill="#FF7517" p-id="1575"></path><path d="M515.718333 538.931971l27.137417-15.750344 27.669524 15.963186-27.137417 15.750345-27.669524-15.963187zM485.4947 390.580757l27.243838-15.750344 88.329633 50.975776-27.137417 15.750344-88.436054-50.975776z" fill="#FF9F48" p-id="1576"></path><path d="M573.930754 441.556533l27.137417-15.750344-58.212421 97.375438-27.137417 15.750344 58.212421-97.375438z" fill="#FF7517" p-id="1577"></path><path d="M573.930754 441.556533l-58.212421 97.375438 27.669524 15.963187-0.212843 67.045383-57.786735-33.41627-11.599916 19.900772-0.106421 26.605311 69.386651 40.014388-0.212843 67.045383L473.469099 701.969316l-0.106421 60.660109-80.986566-46.825347 0.106421-60.553688-69.28023-40.014387 0.106421-67.045384 69.386651 40.120809 0.106422-26.605311-11.493495-33.203428-57.786735-33.41627 0.212842-66.938963 27.669524 15.963187-57.361051-164.101558 88.329633 50.975776 51.401461 166.01714 51.720724-106.421244 88.436054 50.975776z" fill="#FFDF5A" p-id="1578"></path></svg>